<?xml version="1.0" encoding="utf-8"?>
<!-- Generator: Adobe Illustrator 16.0.4, SVG Export Plug-In . SVG Version: 6.00 Build 0)  -->
<!DOCTYPE svg PUBLIC "-//W3C//DTD SVG 1.1//EN" "http://www.w3.org/Graphics/SVG/1.1/DTD/svg11.dtd">
<svg version="1.1" id="Layer_1" xmlns="http://www.w3.org/2000/svg" xmlns:xlink="http://www.w3.org/1999/xlink" x="0px" y="0px"
	 width="960px" height="560px" viewBox="0 0 960 560" enable-background="new 0 0 960 560" xml:space="preserve">
<g>
	<path fill="#FFF766" d="M278.685,230.31c1.653,6.157,0.532,11.893-3.373,17.217c-3.905,5.325-9.23,9.94-15.975,13.845
		c-6.745,3.905-14.377,7.044-22.897,9.407c-8.52,2.369-16.452,3.55-23.785,3.55c0.71,4.499,1.953,8.52,3.728,12.07
		c1.775,3.55,3.844,6.156,6.213,7.81c3.783,2.606,8.636,3.966,14.555,4.083c5.913,0.121,12.425-1.359,19.525-4.438
		c7.1-3.073,14.378-8.043,21.833-14.911c7.455-6.861,14.611-15.853,21.478-26.98c1.653-1.42,3.312-1.42,4.97,0
		c1.653,1.42,2.008,3.195,1.065,5.325c-1.659,3.317-4.027,7.455-7.1,12.425c-3.079,4.97-6.567,10.179-10.473,15.62
		c-3.905,5.447-7.987,10.772-12.247,15.976c-4.26,5.208-8.287,9.707-12.07,13.489c-3.55,3.55-7.632,6.923-12.248,10.118
		c-4.615,3.194-9.762,5.912-15.442,8.164c-5.68,2.247-11.715,3.729-18.105,4.438c-6.39,0.711-13.135,0.233-20.235-1.42
		c-6.157-1.658-11.715-4.854-16.685-9.584c-4.97-4.732-8.398-10.295-10.295-16.686c-4.493-14.434-5.203-27.807-2.13-40.115
		c3.078-12.303,8.697-22.72,16.862-31.24s18.222-14.91,30.175-19.17c11.948-4.26,24.551-5.68,37.808-4.26
		c0.943,0,2.602,0.239,4.97,0.71c2.363,0.477,4.848,1.243,7.455,2.308c2.602,1.065,5.087,2.607,7.455,4.615
		C276.078,224.691,277.736,227.237,278.685,230.31z M249.93,223.565c-6.629,1.659-12.248,3.966-16.863,6.922
		c-4.615,2.962-8.403,6.335-11.36,10.118c-2.962,3.789-5.147,7.871-6.567,12.248c-1.42,4.382-2.252,8.697-2.485,12.958
		c8.992,0,18.222-1.714,27.69-5.147c9.463-3.428,17.273-8.343,23.43-14.732c2.602-2.602,4.493-5.147,5.68-7.633
		c1.182-2.485,1.537-4.67,1.065-6.567c-0.477-2.363-1.542-4.199-3.195-5.502c-1.659-1.298-3.495-2.186-5.503-2.663
		c-2.013-0.471-4.143-0.649-6.39-0.532C253.181,223.154,251.35,223.332,249.93,223.565z"/>
	<path fill="#FFF766" d="M366.721,320.48c-12.78,8.52-23.668,13.545-32.66,15.087c-8.997,1.536-16.452,0.649-22.365-2.663
		c-5.913-3.316-10.295-8.813-13.135-16.507c-2.84-7.688-4.376-16.507-4.615-26.447c0-19.642,2.369-38.695,7.1-57.155
		c4.737-18.46,10.883-35.378,18.46-50.765c7.571-15.381,16.208-28.81,25.915-40.292c9.702-11.476,19.525-20.057,29.465-25.737
		c3.073-1.653,6.801-2.84,11.183-3.55c4.376-0.71,8.52-0.533,12.425,0.532c3.905,1.065,7.1,3.018,9.585,5.857
		c2.485,2.84,3.489,6.745,3.018,11.715c-1.42,12.547-4.792,23.668-10.117,33.37c-5.325,9.707-11.538,18.521-18.638,26.448
		c-7.1,7.932-14.793,15.032-23.075,21.3c-8.287,6.273-16.213,12.131-23.785,17.573l-3.195,27.335
		c-0.948,9.468-0.177,17.339,2.308,23.607c2.485,6.273,6.151,10.65,11.005,13.135c4.848,2.485,10.528,2.963,17.04,1.42
		c6.507-1.536,13.429-5.381,20.768-11.537c4.731-4.021,9.053-8.637,12.958-13.845c3.905-5.203,7.633-11.122,11.183-17.75
		c0.472-0.71,1.182-1.004,2.13-0.887c0.943,0.122,1.831,0.477,2.663,1.065c0.827,0.593,1.537,1.303,2.13,2.13
		c0.588,0.832,0.649,1.598,0.178,2.308c-7.339,13.019-14.5,24.912-21.478,35.677C386.186,302.674,377.372,312.199,366.721,320.48z
		 M359.622,160.375c-6.39,11.127-11.244,21.006-14.555,29.643c-3.317,8.642-5.918,17.456-7.81,26.447
		c6.623-4.731,13.074-9.346,19.348-13.845c6.268-4.493,12.248-9.879,17.927-16.153c5.68-6.268,10.944-13.961,15.797-23.075
		c4.848-9.108,9.286-20.646,13.312-34.613c0.233-3.55-0.299-5.857-1.597-6.922c-1.304-1.065-2.901-1.42-4.792-1.065
		c-1.897,0.355-3.85,1.065-5.857,2.13c-2.014,1.065-3.611,2.075-4.792,3.018c-5.447,4.737-10.356,10.062-14.733,15.975
		C367.487,147.833,363.404,153.985,359.622,160.375z"/>
	<path fill="#FFF766" d="M506.231,230.31c1.653,6.157,0.532,11.893-3.372,17.217c-3.905,5.325-9.23,9.94-15.976,13.845
		c-6.745,3.905-14.377,7.044-22.897,9.407c-8.52,2.369-16.452,3.55-23.785,3.55c0.71,4.499,1.953,8.52,3.728,12.07
		c1.775,3.55,3.844,6.156,6.213,7.81c3.783,2.606,8.636,3.966,14.555,4.083c5.913,0.121,12.425-1.359,19.524-4.438
		c7.101-3.073,14.379-8.043,21.833-14.911c7.455-6.861,14.61-15.853,21.478-26.98c1.653-1.42,3.312-1.42,4.971,0
		c1.652,1.42,2.008,3.195,1.064,5.325c-1.658,3.317-4.027,7.455-7.1,12.425c-3.079,4.97-6.568,10.179-10.473,15.62
		c-3.905,5.447-7.988,10.772-12.248,15.976c-4.26,5.208-8.287,9.707-12.07,13.489c-3.549,3.55-7.632,6.923-12.247,10.118
		c-4.615,3.194-9.762,5.912-15.442,8.164c-5.68,2.247-11.715,3.729-18.105,4.438c-6.39,0.711-13.135,0.233-20.235-1.42
		c-6.157-1.658-11.715-4.854-16.685-9.584c-4.97-4.732-8.398-10.295-10.295-16.686c-4.493-14.434-5.203-27.807-2.13-40.115
		c3.078-12.303,8.697-22.72,16.862-31.24s18.222-14.91,30.175-19.17c11.948-4.26,24.551-5.68,37.807-4.26
		c0.943,0,2.602,0.239,4.971,0.71c2.363,0.477,4.848,1.243,7.455,2.308c2.602,1.065,5.086,2.607,7.455,4.615
		C503.625,224.691,505.283,227.237,506.231,230.31z M477.477,223.565c-6.629,1.659-12.248,3.966-16.863,6.922
		c-4.615,2.962-8.403,6.335-11.36,10.118c-2.962,3.789-5.147,7.871-6.567,12.248c-1.42,4.382-2.252,8.697-2.485,12.958
		c8.992,0,18.222-1.714,27.69-5.147c9.463-3.428,17.272-8.343,23.43-14.732c2.602-2.602,4.493-5.147,5.681-7.633
		c1.182-2.485,1.536-4.67,1.064-6.567c-0.477-2.363-1.542-4.199-3.195-5.502c-1.658-1.298-3.494-2.186-5.502-2.663
		c-2.014-0.471-4.144-0.649-6.391-0.532C480.727,223.154,478.896,223.332,477.477,223.565z"/>
	<path fill="#FFF766" d="M548.828,220.015c4.021-0.472,7.865-0.71,11.537-0.71c3.667,0,8.697,0,15.088,0
		c-3.316,5.447-6.035,10.178-8.165,14.2c-2.13,4.027-4.144,7.871-6.034,11.538c-1.898,3.672-3.789,7.632-5.681,11.893
		c-1.897,4.26-4.026,9.468-6.39,15.62c-3.551,9.707-3.967,16.213-1.242,19.525c2.717,3.316,6.861,4.32,12.424,3.018
		c5.559-1.299,11.594-4.315,18.105-9.053c6.506-4.731,11.77-10.528,15.797-17.395c3.074-5.203,5.914-9.996,8.521-14.377
		c2.602-4.376,5.146-8.459,7.631-12.248c2.486-3.783,4.971-7.455,7.455-11.005c2.486-3.55,5.148-7.216,7.988-11.005
		c1.182,0,3.018-0.056,5.502-0.178c2.486-0.116,5.088-0.177,7.811-0.177c2.719,0,5.324-0.056,7.811-0.178
		c2.484-0.116,4.438-0.177,5.857-0.177c-10.18,13.729-17.812,28.344-22.898,43.842c-5.092,15.503-9.646,31.417-13.668,47.747
		c7.102-3.783,13.252-7.57,18.461-11.359c5.203-3.783,9.939-7.865,14.199-12.248c4.26-4.376,8.344-9.462,12.248-15.265
		c3.904-5.796,7.988-12.603,12.248-20.413c1.42-1.181,3.072-1.181,4.969,0c1.893,1.187,2.602,2.724,2.131,4.615
		c-4.26,7.577-9.291,15.797-15.088,24.672c-5.801,8.875-11.775,16.036-17.928,21.478c-5.447,4.971-11.064,9.291-16.861,12.957
		c-5.803,3.672-11.893,7.045-18.283,10.118c-1.896,6.861-3.434,12.835-4.615,17.927c-1.188,5.087-2.662,9.94-4.438,14.556
		c-1.775,4.614-3.965,9.229-6.566,13.845c-2.607,4.615-6.035,9.879-10.295,15.798c-4.027,4.731-9.408,8.931-16.153,12.603
		c-6.745,3.666-13.79,5.264-21.122,4.793c-6.391-0.239-12.188-2.131-17.396-5.681c-5.202-3.55-9.407-7.755-12.603-12.603
		c-3.195-4.854-5.086-9.939-5.68-15.266c-0.588-5.324,0.532-9.884,3.373-13.667c1.658-2.606,4.082-4.915,7.277-6.923
		c3.194-2.014,7.044-3.965,11.537-5.857c4.492-1.896,9.585-3.966,15.265-6.212c5.681-2.253,11.948-4.915,18.815-7.987l12.424-31.95
		c-3.316,4.026-6.566,7.87-9.762,11.537c-3.195,3.673-6.451,7.045-9.762,10.118c-4.027,4.026-9.353,7.277-15.976,9.762
		c-6.628,2.485-13.074,3.489-19.348,3.018c-6.269-0.477-11.653-2.9-16.152-7.277c-4.493-4.377-6.745-11.416-6.745-21.123
		c0.238-7.57,2.074-15.143,5.502-22.719c3.434-7.572,7.455-15.027,12.07-22.366c4.615-7.333,9.408-14.377,14.378-21.123
		C541.373,231.908,545.512,225.695,548.828,220.015z M565.158,344.62c-3.316,1.181-5.918,2.186-7.811,3.018
		c-1.896,0.826-3.61,1.597-5.146,2.308c-1.543,0.709-3.141,1.42-4.793,2.13c-1.658,0.71-3.904,1.536-6.745,2.485
		c-4.493,1.42-7.333,3.372-8.521,5.857c-1.181,2.484-1.297,4.792-0.354,6.922c0.948,2.131,2.663,3.728,5.147,4.793
		c2.485,1.064,5.381,0.943,8.697-0.355c3.312-1.303,6.685-4.027,10.117-8.165C559.179,359.469,562.318,353.141,565.158,344.62z"/>
	<path fill="#FFF766" d="M689.759,220.015c4.021-0.472,7.865-0.71,11.537-0.71c3.667,0,8.697,0,15.088,0
		c-6.391,11.127-12.664,21.716-18.815,31.772c-6.157,10.062-10.889,21.123-14.2,33.192c-2.362,7.578-3.194,12.842-2.484,15.798
		c0.71,2.962,2.19,4.499,4.438,4.615c2.246,0.122,5.147-0.942,8.697-3.195c3.55-2.246,7.155-4.97,10.827-8.165
		c3.667-3.195,7.039-6.445,10.118-9.762c3.072-3.312,5.325-6.036,6.745-8.166c2.13-2.84,3.728-5.147,4.792-6.922
		c1.065-1.775,2.069-3.428,3.018-4.97c0.943-1.537,1.952-3.195,3.018-4.97c1.065-1.775,2.54-4.083,4.438-6.923
		c0.472-0.71,1.182-1.065,2.13-1.065c0.943,0,1.892,0.3,2.84,0.888c0.943,0.593,1.653,1.364,2.13,2.308
		c0.472,0.948,0.472,1.775,0,2.485c-6.866,13.019-13.845,24.733-20.944,35.145c-7.101,10.417-15.62,20.118-25.561,29.11
		c-4.026,4.026-8.997,7.277-14.91,9.762c-5.912,2.485-11.653,3.489-17.217,3.018c-5.559-0.477-10.295-2.9-14.2-7.277
		s-5.857-11.416-5.857-21.123c0.238-7.57,2.074-15.143,5.502-22.719c3.434-7.572,7.455-15.027,12.07-22.366
		c4.615-7.333,9.407-14.377,14.378-21.123C682.304,231.908,686.441,225.695,689.759,220.015z"/>
</g>
<g>
	<path fill="#FF6666" d="M704.438,181.799c3.073-6.623,7.155-11.892,12.247-15.797c5.087-3.905,9.641-5.38,13.668-4.438
		c4.021,0.949,6.329,3.966,6.922,9.053c0.588,5.092-0.532,10.95-3.372,17.573c-3.317,6.628-7.516,11.893-12.603,15.797
		c-5.092,3.905-9.763,5.387-14.022,4.438c-4.027-0.943-6.273-3.961-6.745-9.053C700.057,194.285,701.359,188.428,704.438,181.799z"
		/>
</g>
</svg>
